PathFileType  4	(X/Y/Z) subject11/noload/static/trial01/expdata
DataRate	CameraRate	NumFrames	NumMarkers	Units	OrigDataRate	OrigDataStartFrame	OrigNumFrames
100.0	100.0	4	64	mm	100.0	72	287
Frame#	Time	R.Shoulder			L.Shoulder			R.Clavicle			L.Clavicle			R.Biceps			R.Elbow			R.MElbow			R.Forearm			R.Wrist			L.Biceps			L.Elbow			L.MElbow			L.Forearm			L.Wrist			R.ASIS			L.ASIS			R.PSIS			S2			L.PSIS			R.TH1			R.TH2			R.TH3			R.Knee			R.MKnee			R.SH1			R.SH2			R.SH3			R.SH4			R.Ankle			R.MAnkle			R.Heel			R.MT5			R.Toe			L.TH1			L.TH2			L.TH3			L.TH4			L.Knee			L.MKnee			L.SH1			L.SH2			L.SH3			L.Ankle			L.MAnkle			L.Heel			L.MT5			L.Toe			R_HJC			L_HJC			L.HeelGround			L.ToeGround			L.MT5Ground			L.AnkleJoint			L.AnkleJointGround			L.KneeJoint			R.HeelGround			R.ToeGround			R.MT5Ground			R.AnkleJoint			R.AnkleJointGround			R.KneeJoint			MidASIS			MidPSIS			MidClavicle			
		X1	Y1	Z1	X2	Y2	Z2	X3	Y3	Z3	X4	Y4	Z4	X5	Y5	Z5	X6	Y6	Z6	X7	Y7	Z7	X8	Y8	Z8	X9	Y9	Z9	X10	Y10	Z10	X11	Y11	Z11	X12	Y12	Z12	X13	Y13	Z13	X14	Y14	Z14	X15	Y15	Z15	X16	Y16	Z16	X17	Y17	Z17	X18	Y18	Z18	X19	Y19	Z19	X20	Y20	Z20	X21	Y21	Z21	X22	Y22	Z22	X23	Y23	Z23	X24	Y24	Z24	X25	Y25	Z25	X26	Y26	Z26	X27	Y27	Z27	X28	Y28	Z28	X29	Y29	Z29	X30	Y30	Z30	X31	Y31	Z31	X32	Y32	Z32	X33	Y33	Z33	X34	Y34	Z34	X35	Y35	Z35	X36	Y36	Z36	X37	Y37	Z37	X38	Y38	Z38	X39	Y39	Z39	X40	Y40	Z40	X41	Y41	Z41	X42	Y42	Z42	X43	Y43	Z43	X44	Y44	Z44	X45	Y45	Z45	X46	Y46	Z46	X47	Y47	Z47	X48	Y48	Z48	X49	Y49	Z49	X50	Y50	Z50	X51	Y51	Z51	X52	Y52	Z52	X53	Y53	Z53	X54	Y54	Z54	X55	Y55	Z55	X56	Y56	Z56	X57	Y57	Z57	X58	Y58	Z58	X59	Y59	Z59	X60	Y60	Z60	X61	Y61	Z61	X62	Y62	Z62	X63	Y63	Z63	X64	Y64	Z64	

72	0.71000	468.312	1565.685	-276.548	749.657	1565.801	-265.631	575.094	1496.605	-186.743	630.589	1494.239	-183.685	254.638	1507.234	-272.391	154.067	1521.928	-302.404	171.117	1457.006	-364.735	136.415	1400.621	-204.665	114.498	1302.164	-139.809	934.422	1523.297	-253.524	1056.037	1499.301	-248.223	1044.647	1432.443	-309.568	1066.062	1396.490	-139.524	1064.526	1309.817	-69.353	458.524	1031.271	-130.467	715.932	1018.634	-132.877	541.676	1036.201	-338.890	584.497	1013.723	-350.722	631.421	1032.050	-339.553	375.689	798.509	-175.838	373.507	791.890	-284.860	390.249	663.160	-286.531	399.429	529.330	-248.750	529.352	502.837	-237.374	384.097	434.978	-243.885	370.818	323.805	-255.552	386.456	438.825	-328.005	379.876	319.513	-340.338	388.238	113.634	-303.825	473.262	111.368	-278.396	436.024	37.552	-377.531	340.546	39.522	-193.541	431.110	55.366	-77.544	796.856	820.455	-162.834	769.274	692.556	-159.733	807.636	828.341	-269.132	779.244	695.348	-278.062	759.829	532.591	-251.567	628.160	506.754	-267.650	762.283	425.977	-232.380	789.051	447.413	-323.715	796.251	331.868	-341.461	797.209	116.870	-296.356	710.549	112.517	-288.642	755.111	36.092	-384.704	838.576	36.244	-193.501	743.322	58.206	-89.388	473.309	939.969	-227.536	688.146	933.576	-225.332	755.111	0.000	-384.704	743.322	0.000	-89.388	838.576	0.000	-193.501	753.879	114.694	-292.499	753.879	0.000	-292.499	693.995	519.673	-259.608	436.024	0.000	-377.531	431.110	0.000	-77.544	340.546	0.000	-193.541	430.750	112.501	-291.111	430.750	0.000	-291.111	464.390	516.083	-243.062	587.228	1024.952	-131.672	586.549	1034.126	-339.221	602.841	1495.422	-185.214
73	0.72000	468.300	1565.618	-276.608	749.833	1565.709	-265.769	575.176	1496.477	-186.867	630.815	1494.154	-183.841	254.556	1507.288	-272.483	154.019	1521.989	-302.435	171.097	1456.970	-364.794	136.372	1400.538	-204.773	114.361	1302.113	-140.006	934.379	1523.124	-253.781	1056.174	1499.167	-248.402	1044.687	1432.293	-309.818	1066.091	1396.173	-139.746	1064.358	1309.484	-69.685	458.508	1031.278	-130.577	715.842	1018.758	-133.006	541.574	1036.323	-338.993	584.570	1013.746	-350.805	631.350	1032.025	-339.674	375.667	798.546	-175.992	373.365	792.004	-285.035	390.060	663.391	-286.734	399.378	529.297	-248.921	529.354	502.874	-237.453	384.000	434.904	-244.034	370.739	323.893	-255.687	386.345	438.761	-328.174	379.671	319.634	-340.486	388.220	113.589	-303.865	473.248	111.377	-278.402	435.946	37.597	-377.531	340.528	39.450	-193.550	431.104	55.348	-77.573	796.815	820.582	-162.965	769.384	692.481	-159.877	807.630	828.311	-269.245	779.248	695.397	-278.126	759.819	532.553	-251.654	628.324	506.639	-267.885	762.315	425.909	-232.444	789.065	447.401	-323.781	796.247	331.839	-341.514	797.178	116.945	-296.330	710.538	112.518	-288.664	755.080	36.122	-384.706	838.536	36.271	-193.511	743.312	58.230	-89.379	473.291	939.992	-227.638	688.129	933.658	-225.427	755.080	0.000	-384.706	743.312	0.000	-89.379	838.536	0.000	-193.511	753.858	114.731	-292.497	753.858	0.000	-292.497	694.072	519.596	-259.769	435.946	0.000	-377.531	431.104	0.000	-77.573	340.528	0.000	-193.550	430.734	112.483	-291.134	430.734	0.000	-291.134	464.366	516.086	-243.187	587.175	1025.018	-131.791	586.462	1034.174	-339.333	602.995	1495.316	-185.354
74	0.73000	468.336	1565.596	-276.665	749.924	1565.623	-265.856	575.221	1496.419	-186.975	630.852	1494.065	-183.935	254.648	1507.259	-272.550	154.032	1521.909	-302.465	171.094	1456.981	-364.857	136.397	1400.383	-204.849	114.369	1301.941	-140.175	934.485	1522.926	-253.945	1056.185	1498.829	-248.553	1044.761	1432.044	-310.063	1066.118	1395.908	-139.974	1064.247	1309.204	-69.948	458.496	1031.293	-130.704	715.869	1018.705	-133.179	541.555	1036.296	-339.148	584.414	1013.626	-350.933	631.395	1031.961	-339.804	375.628	798.584	-176.194	373.315	792.034	-285.226	390.108	663.391	-286.905	399.371	529.275	-249.060	529.595	502.957	-237.672	383.967	434.944	-244.165	370.698	323.893	-255.793	386.340	438.773	-328.307	379.646	319.603	-340.598	388.201	113.607	-303.874	473.254	111.342	-278.402	436.033	37.467	-377.533	340.525	39.445	-193.557	431.057	55.388	-77.572	796.796	820.516	-163.180	769.382	692.473	-159.992	807.509	828.206	-269.488	779.136	695.288	-278.265	759.773	532.504	-251.716	628.325	506.637	-267.906	762.333	425.954	-232.542	789.089	447.335	-323.830	796.350	331.798	-341.560	797.217	116.854	-296.359	710.532	112.484	-288.688	755.138	36.100	-384.712	838.591	36.214	-193.497	743.324	58.199	-89.378	473.246	939.986	-227.733	688.083	933.584	-225.567	755.138	0.000	-384.712	743.324	0.000	-89.378	838.591	0.000	-193.497	753.875	114.669	-292.524	753.875	0.000	-292.524	694.049	519.571	-259.811	436.033	0.000	-377.533	431.057	0.000	-77.572	340.525	0.000	-193.557	430.728	112.475	-291.138	430.728	0.000	-291.138	464.483	516.116	-243.366	587.183	1024.999	-131.942	586.475	1034.129	-339.476	603.036	1495.242	-185.455
75	0.74000	468.336	1565.574	-276.685	750.042	1565.560	-265.956	575.278	1496.318	-187.089	631.222	1493.915	-184.065	254.653	1507.212	-272.554	154.054	1521.814	-302.410	171.105	1456.929	-364.878	136.296	1400.244	-204.929	114.385	1301.712	-140.349	934.566	1522.722	-254.070	1056.439	1498.555	-248.667	1044.902	1431.854	-310.216	1066.374	1395.551	-140.186	1064.229	1308.785	-70.218	458.557	1031.315	-130.894	715.840	1018.682	-133.448	541.525	1036.320	-339.304	584.454	1013.598	-351.086	631.627	1031.843	-340.013	375.600	798.648	-176.333	373.386	791.997	-285.410	390.173	663.421	-287.106	399.384	529.248	-249.187	529.592	502.959	-237.737	383.938	434.917	-244.268	370.697	323.822	-255.894	386.330	438.722	-328.418	379.634	319.616	-340.681	388.169	113.559	-303.895	473.270	111.288	-278.439	435.974	37.555	-377.538	340.539	39.428	-193.540	431.151	55.292	-77.576	796.808	820.580	-163.359	769.417	692.399	-160.095	807.402	828.065	-269.648	779.220	695.234	-278.377	759.790	532.395	-251.776	628.479	506.682	-268.011	762.154	425.835	-232.599	789.134	447.242	-323.849	796.365	331.775	-341.565	797.225	116.828	-296.373	710.518	112.486	-288.707	755.145	36.081	-384.710	838.623	36.105	-193.521	743.376	58.167	-89.389	473.270	940.007	-227.916	688.105	933.530	-225.743	755.145	0.000	-384.710	743.376	0.000	-89.389	838.623	0.000	-193.521	753.871	114.657	-292.540	753.871	0.000	-292.540	694.135	519.538	-259.894	435.974	0.000	-377.538	431.151	0.000	-77.576	340.539	0.000	-193.540	430.719	112.423	-291.167	430.719	0.000	-291.167	464.488	516.104	-243.462	587.198	1024.999	-132.171	586.576	1034.082	-339.659	603.250	1495.117	-185.577
